<?xml version="1.0" encoding="UTF-8" standalone="no"?>
<!-- Created with Inkscape (http://www.inkscape.org/) -->

<svg
   width="105.56875mm"
   height="105.30417mm"
   viewBox="0 0 105.56875 105.30417"
   version="1.1"
   id="svg5"
   sodipodi:docname="favicon.svg"
   xml:space="preserve"
   inkscape:version="1.2.1 (9c6d41e410, 2022-07-14)"
   xmlns:inkscape="http://www.inkscape.org/namespaces/inkscape"
   xmlns:sodipodi="http://sodipodi.sourceforge.net/DTD/sodipodi-0.dtd"
   xmlns="http://www.w3.org/2000/svg"
   xmlns:svg="http://www.w3.org/2000/svg"><sodipodi:namedview
     id="namedview7"
     pagecolor="#505050"
     bordercolor="#ffffff"
     borderopacity="1"
     inkscape:showpageshadow="0"
     inkscape:pageopacity="0"
     inkscape:pagecheckerboard="1"
     inkscape:deskcolor="#505050"
     inkscape:document-units="mm"
     showgrid="false"
     inkscape:zoom="0.72398494"
     inkscape:cx="-122.24011"
     inkscape:cy="417.82637"
     inkscape:window-width="1920"
     inkscape:window-height="1018"
     inkscape:window-x="-6"
     inkscape:window-y="-6"
     inkscape:window-maximized="1"
     inkscape:current-layer="layer1" /><defs
     id="defs2" /><g
     inkscape:label="Layer 1"
     inkscape:groupmode="layer"
     id="layer1"
     transform="translate(-56.151108,-76.154366)"><path
       style="display:inline;fill:#fadf00;stroke-width:0.264583"
       d="M 63.294858,137.07752 V 132.384 l 4.630208,4.62453 4.630209,4.62454 v 0.069 0.069 h -4.630209 -4.630208 z m 11.437158,-6.75577 -11.447019,-11.44929 0.07108,-6.2788 0.07108,-6.27881 17.726342,17.7281 17.726343,17.72808 h -6.3504 -6.350399 z m 14.803685,-11.37103 -22.812682,-22.820312 6.284442,-0.07108 6.284442,-0.07108 22.891397,22.891392 22.89139,22.89139 h -6.36315 -6.36315 z m 26.156659,0 -22.855894,-22.820312 4.345342,-0.08244 4.345342,-0.08244 2.13719,0.168538 2.1372,0.168538 22.73306,22.734216 22.73306,22.73421 h -6.3597 -6.35971 z m 21.06939,-5.09323 -17.68207,-17.727082 4.05603,-0.08299 4.05602,-0.083 2.40383,0.170566 2.40382,0.170567 11.2933,11.295589 11.29329,11.29558 -0.0711,6.34393 -0.0711,6.34393 z m 13.05186,-13.22916 -4.62454,-4.630213 h 4.69352 4.69352 v 4.630213 4.6302 h -0.069 -0.069 z"
       id="path1958" /><path
       style="display:inline;fill:#717171;stroke-width:0.264583"
       d="m 59.76708,181.01756 -0.176389,-0.17638 V 164.6134 148.38562 h -1.5875 -1.5875 V 118.90715 89.428685 l 1.695361,-0.08872 1.695361,-0.08872 -0.123476,0.198438 -0.123475,0.198437 h -1.439594 -1.439593 v 29.22325 29.22326 l 1.521354,0.0794 1.521354,0.0794 0.132292,16.47037 0.132291,16.47037 -0.02205,-6e-5 -0.02205,-6e-5 z m 26.017361,0.0441 v -0.13229 h 0.132292 0.132292 v 0.13229 0.13229 h -0.132292 -0.132292 z m 46.037499,-0.13229 v -0.35278 l 0.17639,0.17639 0.17639,0.17639 -0.17639,0.17639 -0.17639,0.17639 z m 26.19375,-16.23091 0.13229,-16.44513 1.52136,-0.0794 1.52135,-0.0794 V 118.87137 89.648116 h -1.43959 -1.4396 l -0.12347,-0.198437 -0.12348,-0.198438 1.69536,0.08872 1.69536,0.08872 v 29.478469 29.47847 h -1.5875 -1.5875 v 16.25626 16.25626 l -0.19843,0.12272 -0.19844,0.12273 z M 66.469858,158.33988 V 142.1004 l 6.196161,-0.19362 6.196161,-0.19361 0.286131,0.17684 0.28613,0.17684 v 16.25626 16.25626 H 72.95215 66.469858 Z m 71.966662,-0.0324 v -16.27187 h 6.4823 6.48229 v 16.27187 16.27188 h -6.48229 -6.4823 z m -40.92438,-10.12025 11.59541,-0.0718 11.42334,0.0718 11.42334,0.0718 -23.01875,-3e-5 -23.018747,-4e-5 z m 0,-58.737503 11.59541,-0.07179 11.42334,0.07183 11.42334,0.07183 -23.01875,-3.1e-5 -23.018747,-3.2e-5 z m -11.676118,-0.992246 0.0098,-0.79375 0.121971,0.468057 0.12197,0.468056 -0.131773,0.325694 -0.131776,0.325693 0.0098,-0.79375 z m 46.037498,0 0.01,-0.79375 0.12197,0.468057 0.12197,0.468056 -0.13177,0.325694 -0.13178,0.325693 0.01,-0.79375 z m 25.94431,-0.529166 0.005,-1.058334 0.11506,0.598398 0.11507,0.598397 -0.12041,0.459936 -0.12041,0.459936 0.005,-1.058333 z M 59.916659,87.796033 v -0.926042 l 0.121,0.463021 0.121,0.463021 -0.121,0.463021 -0.121,0.463021 z m 72.190751,-0.94809 0.0209,-0.507118 0.13896,0.347265 0.13897,0.347266 -0.15985,0.159852 -0.15986,0.159853 0.0209,-0.507118 z m -46.566663,-0.264584 0.02088,-0.507118 0.138965,0.347266 0.138964,0.347266 -0.15985,0.159852 -0.159854,0.159852 0.0209,-0.507118 z m -25.400001,-0.264583 0.02089,-0.507118 0.138964,0.347266 0.138964,0.347265 -0.159852,0.159853 -0.159853,0.159852 z m 97.376474,0.01458 -0.0307,-0.536631 -0.88443,-1.844619 -0.88444,-1.844619 -1.39468,-1.5875 -1.39467,-1.5875 1.52395,1.575147 1.52395,1.575147 0.90973,1.915638 0.90973,1.915639 -0.12387,0.477964 -0.12388,0.477965 z m -72.261945,-0.65399 v -0.352777 l 0.176389,0.176388 0.176388,0.176389 -0.176388,0.176389 -0.176389,0.176389 z m 47.095835,0 v -0.352777 l 0.17639,0.176388 0.17638,0.176389 -0.17638,0.176389 -0.17639,0.176389 z M 60.384441,85.414783 v -0.352778 l 0.176389,0.176389 0.176389,0.176389 -0.176389,0.176389 -0.176389,0.176389 z m 24.60625,-0.529167 v -0.352777 l 0.17639,0.176388 0.176387,0.176389 -0.176387,0.176389 -0.17639,0.176389 z m 47.624999,0 v -0.352777 l 0.17639,0.176388 0.17639,0.176389 -0.17639,0.176389 -0.17639,0.176389 z m -71.953939,-0.07494 -0.01273,-0.207233 0.650554,-1.283808 0.650555,-1.283808 1.362037,-1.419376 1.362037,-1.419376 -1.242215,1.443676 -1.242216,1.443676 -0.75765,1.466741 -0.75765,1.466741 z m 24.064357,-0.586517 v -0.132292 h 0.132292 0.132291 v 0.132292 0.132292 H 84.8584 84.726108 Z m 48.154162,0 v -0.132292 h 0.1323 0.13229 v 0.132292 0.132292 h -0.13229 -0.1323 z M 84.461525,83.694991 V 83.5627 h 0.132291 0.132292 v 0.132291 0.132292 h -0.132292 -0.132291 z m 48.683335,0 V 83.5627 h 0.13229 0.13229 v 0.132291 0.132292 h -0.13229 -0.13229 z M 84.196941,83.165825 v -0.132292 h 0.132292 0.132292 v 0.132292 0.132291 h -0.132292 -0.132292 z m 49.212499,0 v -0.132292 h 0.13229 0.13229 v 0.132292 0.132291 h -0.13229 -0.13229 z m -50.327662,-1.654813 -0.959314,-1.257937 -1.21172,-0.907903 -1.211719,-0.907904 v -0.09243 -0.09243 l 0.586317,0.313787 0.586317,0.313788 1.358163,1.358162 1.358162,1.358163 0.313788,0.586317 0.313788,0.586318 H 84.12833 84.0411 Z m 50.724542,0.993354 0.16352,-0.264583 h 0.13229 0.13229 l -0.16352,0.264583 -0.16352,0.264584 h -0.13229 -0.13229 z m 1.05705,-1.371247 0.69837,-0.974373 0.97437,-0.698364 0.97437,-0.698364 -0.88544,0.787292 -0.88545,0.787293 -0.78729,0.885444 -0.78729,0.885444 z M 64.882358,79.229471 v -0.0999 l 0.463021,-0.363126 0.463021,-0.363126 -0.363126,0.463021 -0.363126,0.463021 h -0.0999 -0.0999 z m 87.419522,-0.470152 -0.18878,-0.305464 0.30546,0.188787 0.30546,0.188787 v 0.116677 0.116677 h -0.11667 -0.11668 z m -14.52681,-0.223703 0.16352,-0.264583 h 0.13229 0.13229 l -0.16352,0.264583 -0.16352,0.264583 h -0.13229 -0.13229 z m -71.702087,-0.264583 0.163521,-0.264584 h 0.132292 0.132292 l -0.163522,0.264584 -0.163521,0.264583 h -0.132292 -0.132291 z m 85.435147,-0.04088 -0.18878,-0.305463 0.30546,0.188787 0.30546,0.188787 v 0.116676 0.116677 h -0.11667 -0.11668 z m -72.338272,-0.09141 v -0.132292 h 0.132292 0.132291 v 0.132292 0.132292 H 79.30215 79.169858 Z m 59.266662,0 v -0.132292 h 0.1323 0.13229 v 0.132292 0.132292 h -0.13229 -0.1323 z M 66.734441,77.874158 v -0.132292 h 0.132292 0.132292 v 0.132292 0.132291 h -0.132292 -0.132292 z m 11.90625,0 v -0.132292 h 0.132292 0.132292 v 0.132292 0.132291 h -0.132292 -0.132292 z m 60.324999,0 v -0.132292 h 0.13229 0.13229 v 0.132292 0.132291 h -0.13229 -0.13229 z m 11.90625,0 v -0.132292 h 0.13229 0.13229 v 0.132292 0.132291 h -0.13229 -0.13229 z M 67.263608,77.609574 v -0.132291 h 0.132292 0.132291 v 0.132291 0.132292 H 67.3959 67.263608 Z m 10.847917,0 v -0.132291 h 0.132291 0.132292 v 0.132291 0.132292 h -0.132292 -0.132291 z m 61.383335,0 v -0.132291 h 0.13229 0.13229 v 0.132291 0.132292 h -0.13229 -0.13229 z m 10.84791,0 v -0.132291 h 0.1323 0.13229 v 0.132291 0.132292 h -0.13229 -0.1323 z m -82.461801,-0.30868 0.176389,-0.176389 0.176389,0.176389 0.176389,0.176389 H 68.057358 67.70458 Z m 9.701389,0.0441 v -0.132292 h 0.132292 0.132291 v 0.132292 0.132292 H 77.71465 77.582358 Z m 62.441662,0 v -0.132292 h 0.1323 0.13229 v 0.132292 0.132292 h -0.13229 -0.1323 z m 9.6132,-0.0441 0.17639,-0.176389 0.17639,0.176389 0.17638,0.176389 h -0.35277 -0.35278 z m -80.962501,-0.264584 0.176389,-0.176388 0.176389,0.176388 0.176389,0.176389 H 68.851108 68.49833 Z m 8.202083,0 0.176389,-0.176388 0.176389,0.176388 0.176389,0.176389 h -0.352778 -0.352777 z m 63.764578,0 0.17639,-0.176388 0.17639,0.176388 0.17639,0.176389 h -0.35278 -0.35277 z m 8.20209,0 0.17639,-0.176388 0.17639,0.176388 0.17638,0.176389 h -0.35277 -0.35278 z m -79.375001,-0.264583 0.176389,-0.176389 0.176389,0.176389 0.176389,0.176389 H 69.644858 69.29208 Z m 6.35,0 0.176389,-0.176389 0.176389,0.176389 0.176389,0.176389 H 75.994858 75.64208 Z m 65.881251,0 0.17639,-0.176389 0.17639,0.176389 0.17638,0.176389 h -0.35277 -0.35278 z m 6.35,0 0.17639,-0.176389 0.17639,0.176389 0.17638,0.176389 h -0.35277 -0.35278 z m -77.131555,-0.268935 0.347266,-0.138964 0.159852,0.159852 0.159853,0.159853 -0.507118,-0.02089 -0.507118,-0.02089 z m 3.423047,0.0055 0.330729,-0.133452 0.330729,0.133452 0.33073,0.133452 h -0.661459 -0.661458 z m 68.527088,0 0.33072,-0.133452 0.33073,0.133452 0.33073,0.133452 h -0.66146 -0.66145 z m 3.7207,-0.0055 0.34726,-0.138964 0.15986,0.159852 0.15985,0.159853 -0.50712,-0.02089 -0.50712,-0.02089 z"
       id="path1956" /><path
       style="display:inline;fill:#ac9a0c;stroke-width:0.264583"
       d="m 69.500874,141.83756 3.163308,-0.0843 -4.618516,-4.62493 -4.618516,-4.62493 -0.141563,4.69994 -0.141562,4.69995 -0.05687,-4.82865 -0.05687,-4.82865 h 0.201194 0.201194 l 4.693598,4.69904 4.693597,4.69904 v 0.19575 0.19576 l -3.241146,-0.0569 -3.241146,-0.0569 z m 66.153016,-2.7785 -2.90591,-2.97657 2.91474,2.84427 2.91474,2.84427 h 6.3451 6.3451 l -22.75301,-22.75416 -22.75301,-22.75417 -1.05891,-0.04448 -1.05891,-0.04448 1.039,-0.106576 1.039,-0.106577 22.83964,22.838493 22.83965,22.8385 v 0.19902 0.19901 h -6.42066 -6.42066 z M 74.472363,130.32668 63.030275,118.88232 v -6.41502 -6.41502 h 0.199172 0.199173 L 81.28726,123.97781 99.1459,141.90333 81.220379,124.04469 63.294858,106.18605 v 6.34813 6.34814 l 11.442089,11.44436 11.442089,11.44435 h -0.132292 -0.132292 z m 34.723197,8.46779 -2.90591,-2.97656 2.97656,2.90591 2.97656,2.9059 v 0.0707 0.0707 h -0.0706 -0.0707 z m -7.00753,-19.97604 -22.88588,-22.952605 22.9526,22.885885 22.95261,22.88588 v 0.0667 0.0667 h -0.0667 -0.0667 z m 3.54719,16.56172 -0.18879,-0.30546 0.30546,0.18879 0.30547,0.18878 v 0.11668 0.11668 h -0.11668 -0.11668 z m 26.3513,0.17318 v -0.1323 h 0.1323 0.13229 v 0.1323 0.13229 h -0.13229 -0.1323 z m -27.28583,-1.12448 -0.36312,-0.46302 0.46302,0.36312 0.46302,0.36313 v 0.0999 0.0999 h -0.0999 -0.0999 z m 20.27231,-5.95313 -6.34793,-6.41614 6.41614,6.34793 6.41615,6.34793 v 0.0682 0.0682 h -0.0682 -0.0682 z m -21.18987,5.05235 -0.18878,-0.30546 0.30546,0.18878 0.30546,0.18879 v 0.11668 0.11667 h -0.11667 -0.11668 z m -0.93452,-0.95131 -0.36313,-0.46302 0.46302,0.36313 0.46302,0.36312 v 0.0999 0.0999 h -0.0999 -0.0999 z m -0.91756,-0.90077 -0.18879,-0.30547 0.30547,0.18879 0.30546,0.18879 v 0.11668 0.11667 h -0.11667 -0.11668 z m 51.08985,-1.33947 -1.5875,-1.66218 1.52135,1.44608 1.52136,1.44608 v -6.34212 -6.34211 l -11.31094,-11.29712 -11.31094,-11.297116 -1.19062,-0.09873 -1.19063,-0.09873 1.19177,-0.04622 1.19176,-0.04622 11.44685,11.449116 11.44684,11.44911 -0.0709,6.55118 -0.0709,6.55117 z m -57.15,-4.70507 -5.551525,-5.55625 h 0.132292 0.132291 l 5.551525,5.55625 5.551527,5.55625 h -0.13229 -0.1323 z m 54.35185,1.91823 -0.64143,-0.7276 0.7276,0.64143 0.7276,0.64143 v 0.0862 0.0862 h -0.0862 -0.0862 z m -60.603309,-8.20208 -0.363125,-0.46302 0.463021,0.36312 0.463021,0.36313 v 0.0999 0.0999 h -0.0999 -0.09989 z m 48.449489,-3.96875 -4.36261,-4.43177 4.43177,4.36261 4.43177,4.36262 v 0.0692 0.0692 h -0.0692 -0.0691 z m -49.367045,3.06797 -0.188789,-0.30546 0.305465,0.18878 0.305464,0.18879 v 0.11668 0.11667 H 89.107349 88.99067 Z m 21.057215,-5.18464 -5.42153,-5.4901 5.4901,5.42153 5.4901,5.42154 v 0.0686 0.0686 h -0.0686 -0.0686 z m -28.045434,-1.85208 -6.480266,-6.54844 6.548437,6.48027 6.548438,6.48026 v 0.0682 0.0682 h -0.06817 -0.06817 z m 51.173634,-1.16536 -0.18879,-0.30547 0.30547,0.18879 0.30546,0.18879 v 0.11667 0.11668 h -0.11667 -0.11668 z m -4.7625,-4.7625 -0.18879,-0.30547 0.30547,0.18879 0.30546,0.18879 v 0.11667 0.11668 h -0.11667 -0.11668 z m 21.58613,-4.65547 -4.89211,-4.96094 4.82231,4.75341 4.8223,4.75341 0.079,-4.75341 0.079,-4.753415 0.0596,4.960935 0.0596,4.96094 h -0.0688 -0.0688 z m -75.552508,3.0427 -0.777106,-0.85989 0.859896,0.7771 0.859896,0.77711 v 0.0828 0.0828 h -0.08279 -0.08279 z m 48.829258,-3.57187 -4.36261,-4.431775 4.43177,4.362615 4.43177,4.36262 v 0.0692 0.0692 h -0.0692 -0.0692 z m -50.681342,1.71979 -0.777105,-0.8599 0.859896,0.77711 0.859896,0.7771 v 0.0828 0.0828 h -0.08279 -0.08279 z m 23.560744,-2.645836 -3.435766,-3.505729 3.50573,3.435766 3.505729,3.435769 v 0.07 0.07 h -0.06996 -0.06996 z m -27.1212,-0.926041 -2.508316,-2.579688 2.579688,2.508316 2.579687,2.508319 v 0.0714 0.0714 h -0.07137 -0.07137 z"
       id="path1954" /><path
       style="display:inline;fill:#dd1522;stroke-width:0.264583"
       d="M 71.200998,92.160841 70.50818,91.784336 70.076519,90.874677 69.644858,89.965019 v -0.568466 -0.568465 l 0.40972,-0.792311 0.40972,-0.792312 0.847051,-0.516477 0.847051,-0.516477 0.740743,-9.79e-4 0.740743,-9.79e-4 0.76455,0.395364 0.764549,0.395364 0.412937,0.589549 0.412936,0.589529 v 1.290504 1.290503 l -0.899583,0.899584 -0.899584,0.899583 -1.150937,-0.01059 -1.150938,-0.01059 z m 71.574692,-0.501891 -0.89958,-0.899584 v -1.242385 -1.242385 l 0.5223,-0.733505 0.5223,-0.733506 0.80499,-0.333435 0.80498,-0.333436 0.96298,0.156269 0.96297,0.156269 0.74915,0.717735 0.74915,0.717735 0.16471,0.877958 0.16471,0.877958 -0.17657,0.703492 -0.17656,0.703492 -0.80658,0.753455 -0.80658,0.753456 h -1.32139 -1.3214 z"
       id="path1952" /><path
       style="display:inline;fill:#58511a;stroke-width:0.264583"
       d="m 72.883955,180.99685 12.896391,-0.0725 0.07129,-16.0048 0.07129,-16.0048 -0.0031,16.07346 -0.0031,16.07346 -12.964583,0.004 -12.964584,0.004 12.896389,-0.0725 z m 65.468065,-0.001 6.39778,-0.0757 6.5668,0.0756 6.5668,0.0756 -12.96458,9e-5 -12.96459,9e-5 z m -6.40578,-16.33831 6e-5,-16.13958 0.074,8.15497 0.074,8.15497 -0.074,7.98462 -0.074,7.98461 z m -68.194262,-22.81283 0.853994,-0.10627 0.998089,0.10414 0.998089,0.10413 -1.852084,0.002 -1.852083,0.002 0.853995,-0.10628 z m 15.41788,0.0587 v -0.1323 h 0.132292 0.132291 v 0.1323 0.13229 H 79.30215 79.169858 Z m -4.76364,-11.44323 -11.508235,-11.57552 11.509375,11.43967 11.509375,11.43968 6.614583,0.0745 6.614584,0.0745 -6.615724,0.0613 -6.615724,0.0613 z m 44.308902,11.37717 6.60463,-0.0757 -2.50359,-2.57494 -2.50359,-2.57494 2.56604,2.49473 2.56605,2.49473 -0.13427,0.21725 -0.13426,0.21725 -6.53283,-0.0613 -6.53282,-0.0613 z m 17.07035,-2.38134 -2.50832,-2.57969 2.57969,2.50832 2.57968,2.50832 v 0.0714 0.0714 h -0.0714 -0.0714 z M 88.971625,118.89676 66.098496,96.022484 l 0.38935,-0.149408 0.38935,-0.149407 6.344768,0.0761 6.344769,0.0761 -6.61401,0.06112 -6.61401,0.06112 22.885312,22.886461 22.885305,22.88645 h -0.13229 -0.13229 z m 61.228915,21.48521 -1.31297,-1.38906 1.38906,1.31297 1.38906,1.31297 v 0.0761 0.0761 h -0.0761 -0.0761 z m -18.26295,-4.7625 -0.77711,-0.85989 0.8599,0.7771 0.85989,0.77711 v 0.0828 0.0828 h -0.0828 -0.0828 z m -41.65996,-2.77812 -2.773397,-2.84427 2.844271,2.77339 2.844271,2.7734 v 0.0709 0.0709 h -0.07087 -0.07087 z m 28.68675,2.5388 -0.18878,-0.30546 0.30546,0.18879 0.30546,0.18878 v 0.11668 0.11668 h -0.11667 -0.11668 z m -0.93452,-0.9513 -0.36313,-0.46302 0.46302,0.36312 0.46302,0.36313 v 0.0999 0.0999 h -0.0999 -0.0999 z m 6.38164,-6.35 -6.2156,-6.28386 6.28385,6.2156 6.28386,6.2156 v 0.0683 0.0683 h -0.0683 -0.0683 z m -59.529142,5.62239 v -0.13229 h 0.132292 0.132291 v 0.13229 0.13229 H 65.01465 64.882358 Z m 73.816072,-4.82864 -4.89211,-4.96094 4.96093,4.89211 4.96094,4.89211 v 0.0688 0.0688 h -0.0688 -0.0688 z m -75.902047,3.85207 -0.03069,-0.44741 0.287637,-0.17777 0.287638,-0.17777 0.307675,0.31013 0.307675,0.31012 -0.439879,-0.1674 -0.439879,-0.16739 -0.124741,0.48245 -0.124742,0.48245 z m 47.723987,-5.83645 -5.02447,-5.09323 5.09323,5.02447 5.09323,5.02448 v 0.0687 0.0688 h -0.0688 -0.0688 z m 39.8192,0.92604 -4.09784,-4.16718 4.16719,4.09784 4.16719,4.09784 v 0.0693 0.0693 h -0.0693 -0.0694 z m -66.671795,-1.52135 v -0.13229 h 0.132291 0.132292 v 0.13229 0.13229 h -0.132292 -0.132291 z m -0.79375,-0.79375 v -0.13229 h 0.132291 0.132292 v 0.13229 0.13229 h -0.132292 -0.132291 z m -2.390288,-2.4474 -1.446171,-1.52135 1.521354,1.44617 1.521355,1.44617 v 0.0752 0.0752 h -0.07518 -0.07518 z m 64.938983,-0.10702 -0.18879,-0.30547 0.30546,0.18879 0.30547,0.18879 v 0.11667 0.11668 h -0.11668 -0.11668 z m -0.79375,-0.79375 -0.18879,-0.30547 0.30546,0.18879 0.30547,0.18879 v 0.11667 0.11668 h -0.11668 -0.11668 z m -7.12055,-7.16902 -6.34794,-6.41614 6.41615,6.34793 6.41614,6.34793 v 0.0682 0.0682 h -0.0682 -0.0682 z m -66.877921,-1.71979 -7.347542,-7.34219 -0.254582,0.39688 -0.254581,0.39687 -0.0041,-0.46302 -0.0041,-0.46302 h 0.332501 0.332501 l 7.40479,7.40833 7.40479,7.40834 H 78.10906 77.977944 Z m 39.228721,0.26458 -5.68624,-5.75468 5.75469,5.68623 5.75469,5.68623 v 0.0685 0.0685 h -0.0685 -0.0684 z m 13.75796,0.26459 -4.89211,-4.96094 4.96093,4.89211 4.96094,4.89211 v 0.0688 0.0688 h -0.0688 -0.0688 z m 19.71298,-6.4823 -11.37593,-11.443225 11.44323,11.375935 11.44323,11.37593 v 0.0673 0.0673 h -0.0673 -0.0673 z m -47.891038,4.49792 -5.024472,-5.09323 5.093229,5.02447 5.093231,5.02448 v 0.0687 0.0688 h -0.0688 -0.0688 z m 35.059898,-3.77031 v -0.13229 h 0.1323 0.13229 v 0.13229 0.13229 h -0.13229 -0.1323 z m -6.74948,-6.81302 -5.02447,-5.093232 5.09323,5.024472 5.09322,5.02447 v 0.0688 0.0688 h -0.0687 -0.0688 z m -34.823849,4.10104 -0.363125,-0.46302 0.463021,0.36312 0.463021,0.36313 v 0.0999 0.0999 h -0.0999 -0.09989 z m 60.752869,-4.36563 -4.75974,-4.828642 4.82864,4.759742 4.82865,4.75974 v 0.0689 0.0689 h -0.0689 -0.0689 z m 5.16213,4.43178 v -0.1323 h 0.13229 0.13229 v 0.1323 0.13229 h -0.13229 -0.13229 z m -66.973332,-1.12448 -0.363125,-0.46302 0.463021,0.36312 0.463021,0.36313 v 0.0999 0.0999 h -0.0999 -0.09989 z m 21.990742,-4.23334 -3.83303,-3.902602 3.9026,3.833036 3.9026,3.833036 v 0.0696 0.0696 h -0.0696 -0.0696 z m -13.758584,-0.264581 -3.5682,-3.638021 3.638021,3.568199 3.638021,3.568203 v 0.0698 0.0698 h -0.06982 -0.06982 z m -13.494391,-0.79375 -3.038392,-3.108854 3.108854,3.038393 3.108854,3.038392 v 0.0705 0.0705 h -0.07046 -0.07046 z m 13.315033,-3.174377 3.388839,-0.08281 3.225743,0.0831 3.22574,0.0831 -6.61458,-2.91e-4 -6.614584,-2.91e-4 3.388842,-0.08281 z m 26.193752,0 3.38884,-0.08281 3.22574,0.0831 3.22574,0.0831 -6.61458,-2.91e-4 -6.61458,-2.91e-4 3.38884,-0.08281 z m 25.2523,6.88e-4 2.4474,-0.08731 2.44739,0.08731 2.4474,0.08731 h -4.89479 -4.89479 z m -74.877081,-3.153096 0.330729,-0.133452 0.330729,0.133452 0.330729,0.133452 H 72.819858 72.1584 Z m 72.231251,0 0.33073,-0.133452 0.33073,0.133452 0.33073,0.133452 h -0.66146 -0.66146 z M 71.496941,92.426242 V 92.29395 h 0.132292 0.132292 v 0.132292 0.132291 h -0.132292 -0.132292 z m 2.645834,0 V 92.29395 h 0.132291 0.132292 v 0.132292 0.132291 h -0.132292 -0.132291 z m -3.175,-0.264584 v -0.132291 h 0.132291 0.132292 v 0.132291 0.132292 h -0.132292 -0.132291 z m 75.670835,0 v -0.132291 h 0.13229 0.13229 v 0.132291 0.132292 h -0.13229 -0.13229 z M 75.068816,91.764783 75.232338,91.5002 h 0.132291 0.132292 l -0.163521,0.264583 -0.163522,0.264584 h -0.132291 -0.132292 z m 67.443484,-0.04088 -0.18879,-0.305464 0.30547,0.188787 0.30546,0.188787 v 0.116677 0.116677 h -0.11667 -0.11668 z m -72.495833,-0.529167 -0.188786,-0.305464 0.305463,0.188787 0.305464,0.188787 v 0.116677 0.116677 h -0.116677 -0.116677 z m 77.680473,-0.09141 v -0.132292 h 0.13229 0.13229 v 0.132292 0.132291 h -0.13229 -0.13229 z M 75.730275,90.838741 V 90.70645 h 0.132291 0.132292 v 0.132291 0.132292 h -0.132292 -0.132291 z m 66.145835,0 V 90.70645 h 0.13229 0.13229 v 0.132291 0.132292 h -0.13229 -0.13229 z m 6.08541,-0.264583 v -0.132292 h 0.1323 0.13229 v 0.132292 0.132292 h -0.13229 -0.1323 z M 69.644858,90.309575 v -0.132292 h 0.132292 0.132291 v 0.132292 0.132291 H 69.77715 69.644858 Z m 72.033392,-0.79375 0.005,-1.058334 0.11507,0.598398 0.11507,0.598397 -0.12041,0.459936 -0.12041,0.459936 0.005,-1.058333 z M 76.056242,89.383533 v -0.926042 l 0.121,0.463021 0.121,0.463021 -0.121,0.463021 -0.121,0.463021 z M 69.644858,88.457491 V 88.3252 h 0.132292 0.132291 v 0.132291 0.132292 H 69.77715 69.644858 Z m 78.316662,0 V 88.3252 h 0.1323 0.13229 v 0.132291 0.132292 h -0.13229 -0.1323 z M 69.909441,87.928325 v -0.132292 h 0.132292 0.132292 v 0.132292 0.132291 h -0.132292 -0.132292 z m 5.820834,0 v -0.132292 h 0.132291 0.132292 v 0.132292 0.132291 h -0.132292 -0.132291 z m 66.278125,-0.132292 0.16352,-0.264583 h 0.13229 0.13229 l -0.16352,0.264583 -0.16352,0.264583 h -0.13229 -0.13229 z m -9.92188,-0.396875 v -0.132292 h 0.1323 0.13229 v 0.132292 0.132292 h -0.13229 -0.1323 z m 15.0475,-0.330729 -0.36312,-0.463021 0.46302,0.363126 0.46302,0.363126 v 0.0999 0.0999 h -0.0999 -0.0999 z M 70.5709,87.002283 70.734421,86.7377 h 0.132292 0.132291 l -0.163521,0.264583 -0.163521,0.264583 H 70.53967 70.407378 Z m 14.948958,0.132292 v -0.132292 h 0.132292 0.132291 v 0.132292 0.132291 H 85.65215 85.519858 Z M 74.936525,86.869991 V 86.7377 h 0.132291 0.132292 v 0.132291 0.132292 h -0.132292 -0.132291 z m -3.704167,-0.264583 v -0.132292 h 0.132292 0.132291 V 86.605408 86.7377 H 71.36465 71.232358 Z m 3.175,0 v -0.132292 h 0.132292 0.132291 V 86.605408 86.7377 H 74.53965 74.407358 Z m 68.791662,0 v -0.132292 h 0.1323 0.13229 v 0.132292 0.132292 h -0.13229 -0.1323 z M 71.761525,86.340825 v -0.132292 h 0.132291 0.132292 v 0.132292 0.132291 h -0.132292 -0.132291 z m 2.116666,0 v -0.132292 h 0.132292 0.132292 v 0.132292 0.132291 h -0.132292 -0.132292 z m 69.849999,0 v -0.132292 h 0.13229 0.13229 v 0.132292 0.132291 h -0.13229 -0.13229 z m 2.20486,-0.0441 0.17639,-0.176388 0.17639,0.176388 0.17639,0.176389 h -0.35278 -0.35278 z M 134.20319,82.107491 V 81.9752 h 0.13229 0.13229 v 0.132291 0.132292 h -0.13229 -0.13229 z m -52.015889,-1.496088 -0.188787,-0.305464 0.305464,0.188787 0.305463,0.188787 v 0.116676 0.116677 h -0.116676 -0.116677 z m 53.471099,-0.223704 0.47889,-0.529166 h 0.13229 0.13229 l -0.47889,0.529166 -0.47889,0.529167 h -0.13229 -0.13229 z M 81.551108,79.990824 v -0.132291 h 0.132292 0.132291 v 0.132291 0.132292 H 81.6834 81.551108 Z m 71.172912,-0.79375 v -0.132291 h 0.1323 0.13229 v 0.132291 0.132292 h -0.13229 -0.1323 z m -0.79375,-0.529166 v -0.132292 h 0.1323 0.13229 v 0.132292 0.132291 h -0.13229 -0.1323 z M 66.469858,78.138741 v -0.132292 h 0.132292 0.132291 v 0.132292 0.132292 H 66.60215 66.469858 Z m 84.666662,0 v -0.132292 h 0.1323 0.13229 v 0.132292 0.132292 h -0.13229 -0.1323 z M 66.999025,77.874158 v -0.132292 h 0.132291 0.132292 v 0.132292 0.132291 h -0.132292 -0.132291 z m 83.608335,0 v -0.132292 h 0.13229 0.13229 v 0.132292 0.132291 h -0.13229 -0.13229 z m -74.083335,-0.79375 v -0.132292 h 0.132291 0.132292 v 0.132292 0.132291 h -0.132292 -0.132291 z m 64.558335,0 v -0.132292 h 0.13229 0.13229 v 0.132292 0.132291 h -0.13229 -0.13229 z M 69.909441,76.815824 v -0.132291 h 0.132292 0.132292 v 0.132291 0.132292 h -0.132292 -0.132292 z m 5.55625,0 v -0.132291 h 0.132292 0.132292 v 0.132291 0.132292 h -0.132292 -0.132292 z m 66.674999,0 v -0.132291 h 0.13229 0.13229 v 0.132291 0.132292 h -0.13229 -0.13229 z m 5.55625,0 v -0.132291 h 0.13229 0.13229 v 0.132291 0.132292 h -0.13229 -0.13229 z m -75.604686,-0.3218 0.727604,-0.110223 0.727604,0.110223 0.727604,0.110223 H 72.819858 71.36465 Z m 72.231246,0 0.72761,-0.110223 0.7276,0.110223 0.72761,0.110223 h -1.45521 -1.45521 z"
       id="path1950" /><path
       style="display:inline;fill:#2a2a29;stroke-width:0.264583"
       d="m 59.855208,164.60449 -0.132225,-16.45717 0.200491,0.20058 0.20049,0.20057 -0.06827,16.2566 -0.06827,16.25659 z m 25.66465,16.19259 v -0.13229 h 0.132292 0.132291 v 0.13229 0.13229 H 85.65215 85.519858 Z m 46.566662,0 v -0.13229 h 0.1323 0.13229 v 0.13229 0.13229 h -0.13229 -0.1323 z m 25.72541,-16.05782 -0.0608,-16.32241 0.19844,-0.12277 0.19843,-0.12277 -0.0667,10.62434 -0.0667,10.62434 -0.0709,5.82084 -0.0709,5.82083 z m -91.542565,-6.36108 0.06409,-16.47485 0.07022,16.33802 0.07022,16.33802 h 6.480274 6.480273 V 158.1752 141.77103 h -3.259829 -3.25983 l -4.835769,-4.89445 -4.835769,-4.89446 -0.172631,0.10697 -0.17263,0.10698 0.07539,-6.51305 0.07539,-6.51304 11.237604,11.23438 11.237602,11.23438 -2.910475,0.0748 -2.910473,0.0748 -0.06815,16.46166 -0.06815,16.46167 -6.680729,0.0707 -6.680729,0.0707 z m 71.966665,0 0.0641,-16.47485 0.0702,16.33802 0.0702,16.33802 h 6.47827 6.47827 l 0.0682,-16.47031 0.0682,-16.47032 -22.88646,-22.88646 -22.88646,-22.886455 h 6.54844 6.54844 v 0.249437 0.249437 l 17.79323,17.804941 17.79323,17.80493 0.19843,0.003 0.19844,0.003 0.051,-6.68073 0.051,-6.68073 0.10415,1.7198 0.10415,1.71979 -0.18602,9.85573 -0.18601,9.85573 h -1.55461 -1.55461 l -0.0682,16.47031 -0.0682,16.47031 -6.68073,0.0707 -6.68073,0.0707 0.0641,-16.47486 z m -52.4307,-9.88232 0.02088,-0.50712 0.138964,0.34727 0.138965,0.34726 -0.159851,0.15986 -0.159853,0.15985 0.0209,-0.50712 z m 46.01661,-0.11024 v -0.35278 l 0.17639,0.17639 0.17639,0.17639 -0.17639,0.17639 -0.17639,0.17639 z m -74.546353,-0.45409 0.727604,-0.11023 0.727604,0.11023 0.727605,0.11022 h -1.455209 -1.455208 z m 40.368821,-0.009 11.463092,-0.0719 11.29107,0.0719 11.29108,0.0719 -22.75417,-4e-5 -22.754164,-3e-5 z m 61.495762,0.009 0.7276,-0.11023 0.72761,0.11023 0.7276,0.11022 h -1.45521 -1.4552 z m -60.126448,-6.18683 -1.14e-4,-0.15862 -17.986195,-18.09763 -17.986194,-18.09762 -0.0055,-4.68373 -0.0055,-4.683733 1.653645,-0.07877 1.653646,-0.07877 0.132292,-4.233334 0.132292,-4.233333 0.455296,-0.831819 0.455296,-0.831818 0.832046,-0.832046 0.832047,-0.832047 1.093907,-0.563427 1.093908,-0.563427 1.598137,0.01078 1.598136,0.01078 1.065745,0.543703 1.065745,0.543702 0.985946,1.091325 0.985947,1.091326 0.305582,0.713772 0.305581,0.713771 0.145632,4.101042 0.145632,4.101042 -6.459868,-0.07534 -6.459868,-0.07534 -0.215282,0.215281 -0.215281,0.215281 22.947025,22.878809 22.947017,22.87881 H 105.5621 99.01378 Z M 74.82012,92.126918 l 0.599982,-0.393123 0.44863,-0.945417 0.44863,-0.945417 -0.143444,-0.883939 -0.143443,-0.883938 -0.48083,-0.650602 -0.480829,-0.650601 -0.607762,-0.282674 -0.607762,-0.282674 H 72.95215 72.051007 l -0.680406,0.310014 -0.680406,0.310013 -0.555099,0.89817 -0.555099,0.898169 0.133431,1.183804 0.133432,1.183804 0.494312,0.554579 0.494311,0.554579 0.79375,0.359239 0.79375,0.359239 0.898578,-0.150051 0.898577,-0.15005 z m 50.4752,49.620282 0.0443,-0.15613 -22.71922,-22.73033 -22.719223,-22.730332 6.315055,-0.132291 6.315054,-0.132292 0.132292,0.296534 0.132292,0.296535 22.48958,22.530436 22.48959,22.53044 0.10092,0.11632 0.10093,0.11631 -6.36297,0.0755 -6.36296,0.0755 z m -62.421366,-4.34179 -5.56e-4,-4.49792 0.08893,2.16982 0.08893,2.16983 -0.08837,2.32809 -0.08837,2.3281 -5.56e-4,-4.49792 z m 0.0058,-24.60625 3.18e-4,-6.35 0.08335,3.25632 0.08335,3.25632 -0.08366,3.09368 -0.08366,3.09368 3.18e-4,-6.35 z m 80.594166,-5.54463 -11.23444,-11.238039 3.03236,-0.07533 3.03235,-0.07533 0.13258,-4.101042 0.13257,-4.101042 0.57944,-1.083384 0.57945,-1.083384 0.9452,-0.829897 0.9452,-0.829898 0.84213,-0.435485 0.84214,-0.435485 1.60852,-0.01513 1.60852,-0.01514 1.41405,0.76962 1.41404,0.76962 0.62146,0.814771 0.62146,0.814771 0.40506,0.969448 0.40506,0.969448 v 3.844957 3.844956 h -3.175 -3.175 v 0.333486 0.333486 l 4.73295,4.727473 4.73295,4.72747 0.22799,-0.14141 0.22798,-0.14141 -0.0681,4.27472 -0.0681,4.27473 -0.0642,2.18525 -0.0642,2.18525 z m 2.73185,-14.796226 0.87312,-0.364813 0.57359,-0.729202 0.57359,-0.729202 v -1.035791 -1.035791 l -0.38335,-0.741321 -0.38336,-0.74132 -0.66567,-0.436165 -0.66567,-0.436166 h -1.20382 -1.20382 l -0.93848,0.860055 -0.93848,0.860055 -0.14713,1.096895 -0.14712,1.096895 0.49418,0.857293 0.49418,0.857293 1.05833,0.487238 1.05833,0.487238 0.33923,0.0058 0.33923,0.0058 0.87312,-0.364812 z m 8.63423,8.116476 -0.13164,-4.816052 0.20489,0.205517 0.20488,0.205516 -0.0732,4.610529 -0.0733,4.61054 z m -23.0181,-4.708955 v -0.132292 h 0.13229 0.13229 v 0.132292 0.132292 h -0.13229 -0.13229 z M 56.680275,89.780408 v -0.132292 h 0.132291 0.132292 v 0.132292 0.132292 h -0.132292 -0.132291 z m 3.103883,-0.682667 0.16386,-0.626602 0.115686,0.347056 0.115685,0.347057 -0.279545,0.279545 -0.279546,0.279546 z m 72.037782,0.285792 v -0.352778 l 0.17639,0.176389 0.17639,0.176389 -0.17639,0.176389 -0.17639,0.176389 z m 26.05058,-0.0176 -0.1744,-0.282186 0.1261,-0.1261 0.1261,-0.126099 0.15667,0.408286 0.15668,0.408286 h -0.10838 -0.10837 z M 85.784441,89.251241 V 89.11895 h 0.132292 0.132292 v 0.132291 0.132292 h -0.132292 -0.132292 z m 71.768809,-1.5875 0.005,-1.058333 0.11507,0.598397 0.11507,0.598398 -0.12041,0.459936 -0.12041,0.459936 0.005,-1.058334 z M 60.181242,87.53145 v -0.926042 l 0.121,0.463021 0.121,0.463021 -0.121,0.463021 -0.121,0.46302 z m 25.359505,0.110243 0.02088,-0.507118 0.138965,0.347265 0.138964,0.347266 -0.15985,0.159852 -0.159854,0.159853 0.0209,-0.507118 z m 46.545773,0.15434 v -0.352778 l 0.17639,0.176389 0.17639,0.176389 -0.17639,0.176389 -0.17639,0.176389 z m -71.681191,-1.74184 0.02089,-0.507118 0.138964,0.347265 0.138964,0.347266 -0.159852,0.159852 -0.159853,0.159853 z m 24.849946,0.15434 v -0.352778 l 0.176389,0.176389 0.176388,0.176389 -0.176388,0.176389 -0.176389,0.176389 z m 47.095835,0 v -0.352778 l 0.17639,0.176389 0.17638,0.176389 -0.17638,0.176389 -0.17639,0.176389 z m 24.89172,-0.15434 0.0209,-0.507118 0.13896,0.347265 0.13896,0.347266 -0.15985,0.159852 -0.15985,0.159853 0.0209,-0.507118 z m -72.252139,-0.63941 v -0.352778 l 0.17639,0.176389 0.176387,0.176389 -0.176387,0.176389 -0.17639,0.176389 z m 47.624999,0 v -0.352778 l 0.17639,0.176389 0.17639,0.176389 -0.17639,0.176389 -0.17639,0.176389 z M 60.649025,85.1502 v -0.352778 l 0.176389,0.176389 0.176388,0.176389 -0.176388,0.176389 -0.176389,0.176388 z m 96.308335,0 v -0.352778 l 0.17639,0.176389 0.17638,0.176389 -0.17638,0.176389 -0.17639,0.176388 z m -72.707079,-1.461014 -0.57563,-1.18482 h 0.123476 0.123476 l 0.553003,1.083973 0.553,1.083973 -0.100846,0.100847 -0.100849,0.100847 z m 48.629989,1.097695 v -0.186929 l 0.52539,-1.029841 0.52539,-1.029842 0.25324,-0.156512 0.25324,-0.156512 -0.69105,1.26304 -0.69105,1.26304 -0.0876,0.110243 -0.0876,0.110243 z M 60.913608,84.488741 V 84.35645 h 0.132292 0.132291 v 0.132291 0.132292 H 61.0459 60.913608 Z m 95.779162,0 V 84.35645 h 0.1323 0.13229 v 0.132291 0.132292 h -0.13229 -0.1323 z M 61.178191,83.959575 v -0.132292 h 0.132292 0.132292 v 0.132292 0.132291 h -0.132292 -0.132292 z m 95.249999,0 v -0.132292 h 0.13229 0.13229 v 0.132292 0.132291 h -0.13229 -0.13229 z M 61.442775,83.430408 v -0.132292 h 0.132291 0.132292 v 0.132292 0.132292 h -0.132292 -0.132291 z m 94.720835,0 v -0.132292 h 0.13229 0.13229 v 0.132292 0.132292 h -0.13229 -0.13229 z M 61.707358,82.901241 V 82.76895 h 0.132292 0.132291 v 0.132291 0.132292 H 61.83965 61.707358 Z m 93.797772,-0.561743 -0.45474,-0.694035 0.2906,0.179604 0.29061,0.179604 0.27531,0.514431 0.27532,0.514431 h -0.11118 -0.11117 z m -93.533189,0.06497 v -0.0999 l 0.463021,-0.363125 0.463021,-0.363126 -0.363126,0.46302 -0.363126,0.463021 h -0.0999 -0.09989 z m 21.132917,-0.627709 -0.363125,-0.463021 0.463021,0.363126 0.463021,0.363126 v 0.0999 0.0999 h -0.0999 -0.09989 z m 51.495212,-0.06615 0.16352,-0.264583 h 0.13229 0.13229 l -0.16352,0.264583 -0.16352,0.264584 h -0.13229 -0.13229 z m -70.449993,-1.655004 1.301312,-1.258129 0.575381,-0.277831 0.57538,-0.277831 -0.79375,0.607354 -0.79375,0.607355 -1.082943,0.928606 -1.082943,0.928605 z m 89.752123,0.265942 -1.04588,-1.12448 1.12448,1.045885 1.12447,1.045884 v 0.0786 0.07859 h -0.0786 -0.0786 z m -18.11151,0.198437 v -0.132292 h 0.13229 0.13229 v 0.132292 0.132292 h -0.13229 -0.13229 z m -54.774762,-0.787402 -0.655445,-0.65511 -1.719792,-0.926381 -1.719791,-0.92638 0.207233,-0.006 0.207233,-0.006 1.264059,0.640547 1.264058,0.640547 1.133429,0.946953 1.133429,0.946953 h -0.229484 -0.229484 z m 55.568512,-0.0063 V 79.59399 h 0.13229 0.13229 v 0.132292 0.132292 h -0.13229 -0.13229 z m 0.66146,-0.661458 0.16352,-0.264584 h 0.13229 0.13229 l -0.16352,0.264584 -0.16352,0.264583 h -0.13229 -0.13229 z m 15.05598,-0.04088 -0.18878,-0.305464 0.30546,0.188786 0.30546,0.188788 v 0.116676 0.116677 h -0.11667 -0.11668 z M 137.90736,78.66949 v -0.12496 l 1.34922,-0.683704 1.34923,-0.683704 0.0986,0.09859 0.0986,0.09859 -1.44782,0.710075 -1.44781,0.710075 z m 13.60077,-0.174754 -0.18878,-0.305464 0.30546,0.188787 0.30546,0.188787 v 0.116677 0.116676 h -0.11667 -0.11668 z M 66.734441,78.138741 v -0.132292 h 0.132292 0.132292 v 0.132292 0.132292 h -0.132292 -0.132292 z m 84.137499,0 v -0.132292 h 0.13229 0.13229 v 0.132292 0.132292 h -0.13229 -0.13229 z m -83.414304,-0.429706 0.326319,-0.328766 0.148112,0.148112 0.148113,0.148113 -0.474432,0.180653 -0.474432,0.180653 z m 82.620554,0.03283 -0.39687,-0.25648 0.31511,-0.0041 0.31512,-0.0041 0.16352,0.264583 0.16352,0.264583 -0.0818,-0.0041 -0.0818,-0.0041 z m -81.668054,-0.440972 0.176389,-0.176389 0.176389,0.176389 0.176388,0.176389 h -0.352777 -0.352778 z m 80.697914,0 0.17639,-0.176389 0.17639,0.176389 0.17639,0.176389 h -0.35278 -0.35278 z m -79.904164,-0.264584 0.176389,-0.176388 0.176389,0.176388 0.176388,0.176389 h -0.352777 -0.352778 z m 6.879166,0 0.176389,-0.176388 0.176389,0.176388 0.176389,0.176389 h -0.352778 -0.352777 z m 65.352078,0 0.17639,-0.176388 0.17639,0.176388 0.17639,0.176389 h -0.35278 -0.35277 z m 6.87917,0 0.17639,-0.176388 0.17639,0.176388 0.17639,0.176389 h -0.35278 -0.35278 z m -78.052081,-0.264583 0.176389,-0.176389 0.176389,0.176389 0.176389,0.176389 H 70.438608 70.08583 Z m 4.7625,0 0.176389,-0.176389 0.176389,0.176389 0.176389,0.176389 H 75.201108 74.84833 Z m 67.468751,0 0.17639,-0.176389 0.17639,0.176389 0.17638,0.176389 h -0.35277 -0.35278 z m 4.7625,0 0.17639,-0.176389 0.17639,0.176389 0.17638,0.176389 h -0.35277 -0.35278 z"
       id="path1948" /><path
       style="display:inline;fill:#000000;stroke-width:0.264583"
       d="m 60.119858,164.66934 v -16.2651 l -0.511773,-0.2739 -0.511772,-0.27389 h -1.209185 -1.209184 l 0.06731,-29.03802 0.06731,-29.038022 1.455209,-0.0813 1.455208,-0.0813 0.183612,-0.183281 0.183612,-0.183282 0.290653,-1.852083 0.290653,-1.852083 0.745559,-1.5875 0.745558,-1.5875 1.103083,-1.24009 1.103083,-1.240089 1.606173,-1.072561 1.606174,-1.072562 1.721186,-0.53162 1.721185,-0.53162 1.758068,0.0031 1.758068,0.0031 1.357738,0.361524 1.357738,0.361523 1.585438,0.84503 1.585438,0.845029 1.497508,1.427447 1.497506,1.427447 0.915848,1.928511 0.915844,1.928512 0.335373,1.850494 0.33537,1.850495 23.034321,0.06759 23.03432,0.06759 0.2939,-1.898712 0.29389,-1.898711 0.97269,-1.968099 0.97269,-1.968098 1.39582,-1.407023 1.39582,-1.407022 1.68429,-0.852494 1.68429,-0.852494 1.32292,-0.354269 1.32292,-0.35427 1.75806,-0.0031 1.75807,-0.0031 1.7006,0.525262 1.7006,0.525261 1.57062,1.015139 1.57062,1.015139 1.12626,1.279509 1.12627,1.27951 0.7869,1.611861 0.7869,1.611861 0.2462,1.776828 0.2462,1.776829 0.16915,0.273692 0.16915,0.273692 h 1.57189 1.57188 v 29.10416 29.10417 h -1.20802 -1.20802 l -0.51177,0.27389 -0.51177,0.2739 v 16.2651 16.26511 l -12.76615,-0.0687 -12.76614,-0.0687 -0.0682,-16.25753 -0.0682,-16.25753 -0.32868,-0.20873 -0.32867,-0.20873 H 108.93548 86.4459 l -0.328676,0.20873 -0.328676,0.20873 -0.0682,16.25753 -0.0682,16.25753 -12.766146,0.0687 -12.766146,0.0687 z m 19.51502,-6.36185 0.06815,-16.40416 29.234452,-0.0247 29.23446,-0.0247 v 16.49959 16.49959 l 6.68073,-0.0707 6.68073,-0.0707 0.0682,-16.47031 0.0682,-16.47031 h 1.54734 1.54735 l 0.13845,-8.66511 0.13845,-8.6651 -0.0342,-14.2875 -0.0342,-14.287503 -1.78593,-0.07824 -1.78594,-0.07823 V 91.87648 88.043612 l -0.40506,-0.969448 -0.40506,-0.969447 -0.62146,-0.814772 -0.62146,-0.814771 -1.41404,-0.76962 -1.41405,-0.769619 -1.60852,0.01513 -1.60852,0.01513 -0.84214,0.435486 -0.84213,0.435485 -0.9452,0.829897 -0.9452,0.829897 -0.57945,1.083385 -0.57944,1.083391 -0.13257,4.086619 -0.13258,4.086618 -29.36875,0.01442 -29.368743,0.01442 -0.143288,-4.101042 -0.143289,-4.101042 -0.307925,-0.713772 -0.307925,-0.713773 -0.985947,-1.091325 -0.985946,-1.091325 -1.065745,-0.543703 -1.065745,-0.543702 -1.598136,-0.01078 -1.598137,-0.01078 -1.093908,0.563427 -1.093907,0.563427 -0.832047,0.832047 -0.832046,0.832046 -0.455296,0.831818 -0.455296,0.831819 -0.132292,4.233333 -0.132292,4.233334 -1.615753,0.07779 -1.615753,0.07779 -0.138191,8.65346 -0.138191,8.65347 0.03415,14.2875 0.03415,14.2875 1.653646,0.0788 1.653646,0.0788 v 16.39608 16.39609 l 6.680729,-0.0707 6.680729,-0.0707 z"
       id="path1946" /></g></svg>
